<mxfile host="Electron" modified="2024-02-15T07:34:45.145Z" agent="Mozilla/5.0 (Windows NT 10.0; Win64; x64) AppleWebKit/537.36 (KHTML, like Gecko) draw.io/21.2.8 Chrome/112.0.5615.165 Electron/24.2.0 Safari/537.36" etag="H6SmZP7BCXs7KQgR_YqY" version="21.2.8" type="device">
  <diagram name="Page-1" id="2XWkQP5S-hDbL94sL5Vg">
    <mxGraphModel dx="2058" dy="1180" grid="1" gridSize="10" guides="1" tooltips="1" connect="1" arrows="1" fold="1" page="1" pageScale="1" pageWidth="3300" pageHeight="4681" background="#999999" math="0" shadow="0">
      <root>
        <mxCell id="0" />
        <mxCell id="1" parent="0" />
        <mxCell id="APLwThIm-aDqV8bCMrbt-1" value="Button" style="rounded=0;whiteSpace=wrap;html=1;fontSize=25;fillColor=#dae8fc;strokeColor=#6c8ebf;" parent="1" vertex="1">
          <mxGeometry x="1298" y="140" width="650" height="60" as="geometry" />
        </mxCell>
        <mxCell id="nUUXcD5hrOrL5PBRYQvE-1" value="" style="shape=image;verticalLabelPosition=bottom;labelBackgroundColor=default;verticalAlign=top;aspect=fixed;imageAspect=0;image=data:image/png,iVBORw0KGgoAAAANSUhEUgAAApMAAAC5CAYAAAB0vrSEAAAAAXNSR0IArs4c6QAAAARnQU1BAACxjwv8YQUAAAAJcEhZcwAADsMAAA7DAcdvqGQAACzMSURBVHhe7d0JmBx1nTfwX3dPz0xmkslMSCCCkGNyDElYFEHEd5FT19fXZQF53scLkAddVnkRxH1XHwiK8BpWVleJZH1Ajg2GDQisSFaXlSPIciQkkSuCJEwOk5B7MvdMT89Mv//f/+iurq7uqa7q7urj+8lUV9W/zq76d/U3VdXdoSUn/UWCbBKJjCIupMxSUeYwKnjgcUNi80NwUPtyC+k2ABRDIK+wUHW9rtXTyXxOqtihPMvzTwuTRQuRPhKn9ymheALYKxVUEVBnAcqX81thmQpkZStqC9UEX3skj/DrFCxVUeY87KFShknHEMkygqRDiMwYpxoE8Iw8LrL6tn2tq6A9ispXPJnHbigYbNxyE8ge8bzQ6qo/8tnYg6EqlN3MaRzDhErnMOkQEN2Mk52Pdx0fk3oVwCIDUBsbtjb2JQCUM+e34SIr+UIDeZYVxfMW8rVp3U0sx/IQKpNhcvGSk9Lfb20hMXeI1F2iZRurwnl8Nj42QnVtv2IIYAvVyE5B3YOgpL8tlblAVraitlDJ+do6nieunn0in0nqQVK96c/RGiqdh4dsYdIWFDNzpCnQbdGyjZKFu7EceZzUxxIDUtonWnnbp1ZU0J5BJSo/6cd4cISNlEsgW8fzQitrX5bf01Qzlo+pBynjnsiJhpswmX4G0hYkbSFT/2n2/nLhY408Tlp+2yCX0m8fPypr2wYBWwhqSfobGWTyvIVKP2FFsWWoPJXfNrKGxFSntV91s1yBMrR48RLbCcj0IGk/G5nqtQZMlt6XJsegifiY1DvbFnErkHUNhMdnWiMbqHbqAQC4kXrLLSHPCw1kbUsumM3jbeLiLTI1UHbpcJgRGuVD7mGhRSJMyhLJEiTTwqLoUn+yOz1r2fudTDhCdh4n9bFEH2rledaKCtq6FVYRUG+LI3WIr3KBPNGa2bol53nL+tolpd+f5fg85VAdFJkJi7plHtLGywiU1jCZdpnbFiSTg0RHXTRKzc1NVB+tp/qGeopEIkV9Z7CuCTioqM1T+pVF7QGAoKXedkspmKV6UkGrGgQd7YpDzHpsbIxisRiNjMRpcHCQRuNxUa6WaQ2OqlN1M3OZmx9lmHQbJKdMmUJTW6fS4e4+GhoeoWGx4PjoqBiYmjlAQXhOgaiLUCm4rrqt6IWs107LtM7f84sPwCWXdawqD+fl9/qK1tVRY0OUJjXU0/S2Furu7qG+3l6x/dUOcBUoFy1ebLkt0jlI8gjTp08XJWHae+gIjcQ5QMohoknNFKBgPL3eUBehkpj66qayO9Vtr8dfp+VZ5+PpxedBPs8fqkuuOmgZ5qV6l73yru/10Tp63/RpVBchOnDgoC4Vu0LuC7VDVKfu1uXh3EGS2wlqmTJFdIVp596DliDJ1MwAXOE65dQA1Jx8jp3ZxvV6/MVxG4Lmsg7ivaLkOOPt3HuARsdIXo1WZxtTmTD5qAqS5WHZZyWGmIHc5tOffGmbz0gCFIWqkyn2flfwBgmVwl5Xg6i71mUGtT78Qvf0YoeqwPXM2hhOZdWkMp7X3kNd1Dp1qsyA1kzo9JrlchkmOXmqwaatBrLmyc3yHskRviFTDjWNk2zlUPMmqhpZh7t54VXrQQeqj5e6WqzjKq9LtvWxl5txs40PUAxlWOf45Wgaz8r/dcRnKA9191JTc5PsN5nQBErVSm2EsLVHDxVFuky0+VPb/GGbTJbpZLfpt5YD5MFajSTzgjMHlGwNQLmrxLqa7TXm9DyyjQsQIPOeYm+8sk/rZ14V8HoZio3IDGhyornkbZ63bOlhYV0mC9QA2Zfs56//4U9tZ7JuBBxAAAAyuX3DyDVOOR5fretkX79s61uOzwMqg647HEqsTV6KVP/yXo/KMRyLU0NDg3qKOjRyj7Vfl1Ko48RFcpAsN4HS9Iv27Fmz6Y+df5alKek7pWVyM0X5oz95io+OUW//gO6DqmVqW17wxgPlxtTJfCp0PvXYOt9Kr/9O28jL9gOwstWdiV4m2aqa15dXoecnlffrYXH7CbRj5w7RFUp+cjujzY8cJtM/rSO6dAe3Z8+eRW917uY+WcYT2v349tuofd483efMfBfRnn2HkssZ6D1M1//Dtykczj+IQgUxVScvmfUMIDj2+ui2Uk9Uj+3zqaZ6b31uXreflZmHpwMKVBWfdcDPyyzXoj3Nt7zr86L242nHjp2WAKmepL0/dc+keT6WIJmOJ1AT2bVObaHFHfNzNosWzpPNx8/6CH3ibNXMmH6Uw3Kgotl3p6fd61zPAIor+zEuk986yi8Mp2NsNXJ6XtnKsm0Da3muabNND5Du1u/cQH/e8ibt6XzLseFhPE7GSzVXFfP0fpefl575T/ro6R/WfZl42ItP/1b3FUrmycbkc9X9oY6OE1WneLS2zQSpM5PZPXDPz+j972+nx/97K4XCCdVEuBmnT508j2YeM5X69eXs5uZmeuzF7bJ7zpRB+uIVX6ZIpE72223e9BK1tbbqPqLj2hfpLihLqsoUAN4QoNTsdc5emScank22uuw0Peq94nbbmPFyDYPqZd/Hph642/d/3vomffxTF9HeA/t1iYWYxbS2Nnr+6d/QCfNP0oWCvaplW1Re1dXd+hocFu/8ye30f677B3pp/Su6VMk1zCt1ZtJc5lYrz23ZZWmrD+CYICkeTVu1RFt35sIzC4UitL2nn3b09dHOwV7aFeuh3fFuisfHxWxEo/8Zkfox3ZXbxZ+9VIbI+x94kF4QiXwip5/2IRlCrfh/GVBkLupJJllzdANQTqx10kv9nKhe24d5WUa1ctoWTgeYbNvY08EIKh7vd/f7PhKJ0N79+6m3p496ey2N7t+x889ynDRmEWYxTtUv75dyfhNwSOSwyKHReoayGEFSSj5f8aBPMnK3KkqluswvLfdgbFzNbsZRDRSqH6We0V46OHyY9g+pn+IJmaVpjW3D1DR9UPe5s33HTt0FZce2f92xv4C43zQApZStztnrI1d00+SSbx1Gnc/ktE3cbv9SwX4LVgG3v5+qxathbSbiuIz8nos9UBYtSOahIGHSbJu39++m7d17qXv0CA1RH42E+mV5Qm8nfUKUmlv7qWmyGubWhX/9v+i551+Q3Vde/sW0s5Smn89K/vtDv5CXxvls5P13rUieleT2mkdXy25TbhqejpmzmtbhPG/IIeOF4eZF4fYVZxqAYuB66KYusmLUw3yWX4vy3T6FPl7kWr4pz2f9oPBybf9c+88w40w0XoGZqppWXfNbB2ugDDpIMvULOLJTkB0JdSbTcvpyImYTDInwGJ0Up2hjnOoaRigqGknMyARJ1jHjeJrXOlf35cbhkEPdnDmzaOn3vq9Lna3fsEleFj/S3S0vjV9x1dXJ+yy5/deXfI7+33dvpNNO/aDs5+Y7tyyTyzDMPZo8jC+tX3HZF2Q/CLJe2JqiKfGLG6AgUG8rS6n3V3XWjz3b/uiqKR3rdi7SNi/Ue2BR30cLQ66ieEiuqu5IrbrTb3P7IEOkaKIN3FjCpNiXqYUSzWtrl40b5p7JK//uGhkq/Tr5pCX0+BO/0X1E965cJS+hmzOQHEQ5hLI1v32SWlunym5wy7qnneTzwuZxi3QggBrntl5xfXZTp1FXi8ftdrXuB2uTjRmWbRw3+z4fEy2vch03d7Grpjh4e9obu2zDzT522M9Os3Hitpo4LZ6l9btdaPo9ktZL3kEpaJhUQVKFyHpu16swqT4ZbrZ2Qv7O99DQsO53h886ctAzl6QLbfNbb+sucOTmxeLI+gpy/0IBKCwv9XCiSp/PvMAf63bOd5s7jW8vcztPM555T3N7YPS6PCiOCba/dbDXXZWrevjc/fZ7JO33UAYhnPnpHEu3fDTDmbXbQmyYWGyITp/eTqe2zadTWhbQB5pPpL+YtFiWq1HU1uPFjY+P05ho8sEhki9Bc6jk4Ddn9iw9RN1PafBw69cJMWsIff3NzXThBanx+Ywkn33k6aDQfL5iAArCSz3McqyDAPF+9HpMsU6XbR4TzdsMdxqPy6yNldP4LFs5lMLY2Jj8+p8MerfMPOYYOY7kZleZQwa3rYePAh9Ksn3YpliBUqbB5G2Ptm7ZEv2isyBnJjkXnrjweLrqnPPpqrM+QV8583/Sl8+8gK78H39DHQvfT01NzXT00TNo2lHTKFoflWEyHHb3QjL3THKbL3kzDn5/ePX15Idk7PiyNZfzB2lk//adcnr+AA7fd7lh46vJaW/5zg205EMfleMBQLUp1hs2gkDl4X020X7LNjzf/W2W5XV5UGwrV62W3yO5Z5vIAtZGZ4NX/vtpOY6kc9OE3I7nEX+/4z99/+aMIGmYQPnDZd/TJaUTWriwg0OloNKlSp26W7TnzJ5Nb23bwz1ZXXfNV+mDJ5+s+zKFw2HZcMq3/uLNG2+8Sf/04zsonOVLy6GM5P0iwUESyoXXupit0qNuVz/rvs+2v804hagPeR9goSBs291pV+aza3h6+/ieqk/2hXKgdP3LgTyaz+p54tz3047tO3jB/Cdmxw+qW/ep/kKESX5iiXERFHW/W7wSoXBErIdcHShn+e5cVcUAyoDXuuhU6VGva4fZ/6Xa53kfZKFgCrTt86kq1kVmTFeg9eHZ+Ky+bsOk+gUcJjs4Rppu0RLt5PAcOAzy2UX+WcR8Gp4GQbIaYZ9CNeB6bG+gdpR6n6N+1SwOWm7ClhcFmLeZPJUJkx3JYQX9NDdUIa4pprYAAABUnTIJ8sV8ry3y+zjCJGSHEAkVrdRnlgD8Qn2taPm8Z5rDk+MuL1A9yLmMwtJhUl3elvdJ8v2Pskj2yD+A7Ky1tUS1FiApW31DPYRqYz3GmgYKp8jbU0cqR46LLpP9K9eZs6BeeX2tW/dpBf4FHKgi6TUli1yVnWdgGoBiMPWvTA66AAXhVJ+z1XHU/cIqwPZ0esuzluX1llg5+xdhEjzCQQyCZK9/1n7UTQAoE+VyPqXIh0WEScjkqvJPNJKpuXhjh0LLVqe4HPUNqkE+9Rh1PjDZNj2/PZrGjZzjFXD/ul0fD1SYlAtIX4pDEVQb3r9OjWsTTYCDHBQa6hTUGtT5smR2Sz67x4xrfb+1v4XmeksNilgn62qpbi7UXaKFM5O1iPe/qgN54lcCDmwQFNQ9qCVeUgqUhH1zu9n8Zhw343p+j3ahSPMOLVjYIX/uRv6TC1Gf5pY/1yOaOXPm0NNPPyVHBgAAAIDacP75H6ft27eLtMi/epP6xRv+vRnZp394Rp6Z1BlSdsmWKpFdAAAAAFCbkrlQn2xU3aZcwWVuAAAAAPAMYRIAAAAAPAstWLBQnriUl7n1KUxzvyT/43smn3n6aTlyvuR8NGs3AAAAABQP3+NoWLvzcd7558t7Js39kdnumyx4mORpszVmOAAAAAAUngmOMvhladwqaZg0AXF8fFw23B+PxykWi8lmRHRzv3U4AAAAABRWOBymSCRC0WiU6kXT0NAgG+7nMMjDuWETBUu3YdL3PZMcDDkgjo6OysDY19dHBw8epL379tH+Aweou6eHBgcH5bCxsTEESQAAAIAi4UzGmYuzF2cwzmKcyTibcUbjYZzZCnlyLyxno+elulWPtdyJPUT29/fLFT146BD16pUFAAAAgGBxJuNsxhmNsxpnNrehkgclh4qeVHeq3NOZSV4on2XkFRkZGaEjR47IFewfGJArBQAAAADlhTMaZzXObJzdOMNxlvN75TjvMGmCJKfZoaEhOtzVJU+jchkAAAAAlDfObJzdOMNxluNM5ydQyjCpJrU/6lOZqkCyB8nu7m4aEAkXAAAAACoLZzjOclkDZbJTdIjy1JD0btdnJu1Bskck2qHhYT0UAAAAACoNZzmZ6XycoXQdJvk6Oy+Ar6339PYiSAIAAABUARkoRbYz90/m+/kXESZ1+pQta3eKOSspg6ROrwAAAABQHcxV54k/kCPKk4MSfPXb3ZlJnik3wyK5DgwO6lIAAAAAqBac8Tjrmdznlqswyac7+To6fy8RvvoHAAAAoPrIrw4SWY8zXz55z/WZSf4m9djIiC4BAAAAgGrDWY8zX35nJvV1b9nSD8lueb1c3S/J19JxVhIAAACgenHW48ynwqTIgZwF1Z9i62auzkzyzZgjogEAAACA6saZj7OfW67CZCqhAgAAAEA1M1ek3VJhUn/8Wz7qh+QpTCGfdAoAUDr9tOu1dfTyyy/TunXraNPmTto/UOb/8R07TBsf+zW90af7AQDKkDX7JTOhyItO3e4uc4+O6i4AgHIySG+uvp1++C/303333k3Lb/0mXfnZq+inG3r08IkkaGDni/TomtdELDWcygpgrJ/+/PKDdPNXrqSbHn6rsPMGACiwfLKf609zAwCUowTV0fEXLKWf/fw+WvnwKrr1k+O0dvWz9J718kpWY7T7uVW05k9Dqf9tO5b5NU67/n0pfeOnr9Pxn/wYHRvSxQAAZSqf7OcqTOJT3ABQ1kIhfTBroukzWyhiLr8c3ki/vPsX9MKe1EHxyKZH6e4Hnqc9Y4dpw8P30lNbh2l8/0u0+q676eENWx3KDqkJE8O0d/1jtGLZUrrhhlvojodeot3mV2WH36Xf3XcP/eoPnfTqo8vpezcupdvuXUs7k7cchenoT95CD666nb64pFmXAQCUr3x+nzucGlV1yUf9oP4BAJS3xFAvdXXtp+0bHqF71vTS6ZecTcfJs39d9MZTG2hvwvL/5p7N9MzLuygeClP9pCZqrI9QONJIjU2TqD4ScSjjGQ3QG/dcR1/90YtEi86jT52/mGjdT+jrf7+S3uZAGY7Rtt8/Q8+uupMeH+igc89bRPHf/zMtXbGOzK2RDVNaqFGsRiQc0SUAAOWLwyRnwFQ6zJYIE+7OTAIAlKtwaITeWf0tuvzSK+hrNz1C+2afTifPnKSH5tJGJ1/wOTpzVpRo+il00aWX0kWnzHUoO4rGdz1J9/02Qp9Z9o909YXn0F+e+xm69tbr6YyuJ+ihF7v0/Ppo/ANfoxsv/wSdee7n6dovf4Rir71C75qzlwAAVQphEgAq2niinjouu5Me/481tObxu+jaRTvo599eRk8dKNx1lf7tb9Petg/SabPqdYkwZQGdujBKe3ccIPWZx8k0e8GxZMZoOvpomhwfpGF8fhEAqpwMk/KQK89gqoNvst/aBgAoV3URioQiVNd4FC369MV0et07tHGL5fPSedz74ySRGKfEWJxG024fD8l7NUPJ/5KHKBxOfbImJAbgczYAUNFMIOQ/1dL96bdBujozGQ7jBCYAVIaRfZ20a7CZWlujRPVN1BzuovcOJj8pQ3s699CwCIFJ4qA4Pmb7kKGtbPKs+XRMz2v0yjbLNeu+LbTpnXE6Yd77SCwJAKCq5JP93IVJ64EXAKCsJKjv1Udo+R0/pttv/gZ95fpV1P3RL9ElixqJppxIZywZpbUrltMvn3uefrfyR7R6S5Qak2cq66jtmGk09MZ/0W+eeZKe3MSf3M4si8z+NF1+3ij9+uYbaMWv1tILzz5Gy7+7nF6f8wW67IypalYAAFUkn+wXmXbUtJu5I3W6MnkSUz60tbXRhRf+Db5rEgDK0DD1dMUo0hClaF09Nc1YSGd9/hq6+uLF1CL/q9xEs087hWb0bKb1G7dS/3F/RRd+pI2izcdRx0mz5DjNs5fQCfE/0bqN71H9wtPo5GMnOZS10rEf/jidcUw3/XH9enp92wDNOOtKuv7KM2lmnVjMaB9194dp6qxFtPDoBl4wxXsOU2+kleYs7iBdJMV7DlFPSJQv6aBjLOUAAOUkGo3SE0+soSPdR0RfiEJ8W4/Il+JR3eLDjRpCoXnz58uvEtIPIj+Kf5b+uXPn0r/+6/3UPzAgJwQAAACA6sUZcHJzM33pS1fQtu3bRIkOj05hUrRdXeaur6/HpW4AAACAGsCZj7OfW67CZCQSobq6OnW2EgAAAACqEmc9znyc/dwK61skUyz9qjMhr5s3NDTwEmQJAAAAAFQhkfU483H2070pDjGQi1yfmeSZclLFB3EAAAAAqg9nPM56nPnyOzPpAs/UenYSl7sBAAAAqof54LU5K8mNW2EVC/nR8m3mMiwm++QXV/KNmLyAxsZGGh3F74MBAAAAVAvOdpzxOOvJD17LLy03WVC09YnE1GMqN+Z1mZtnzguK1tXRSCymhwIAAABApeJMx9mOMx5nPc58Bb/MzemUZ2rOTDY3N8t+BEoAAACAysVZjjMdZztzZpL78/45xdQtkNZL3ckH9YWUYqZ8UyYvhJvJkyfLsqGhIRoft/2uLQAAAACULc5unOE4y3GmM/mOsx6XcfZTKVA86nCY7OdHXcZcx04TJs2l7kmTJtGUKVOoPhql2PAwxeNxPSYAAAAAlCvObJzdOMNxluNMZy5xmzCZD9dj289O8kKbmpqopaVFrsTY6CgNDQ7iwzkAAAAAZYgzGmc1zmyc3TjDcZYzl7etZyXzkVf0NIHSfE0Qr4gJlNxweXxkhAYHBiiG+ykBAAAAAseZjLMZZzTOaia3cYbjLMeZjsu9BEmWCpPJa9/p901aLolL9kDJK8I3bfL19tbWVnm6lMsT4+PU39dHA/39NChS8Ih4AnxaFfdXAgAAABQef1ckn33kzMXZizMYZzHOZJzNOKNxVuPMxtmNM9yEQVIHwbQ8aOsJtc+bL5bNqZFDpPjHbR5JthM0t30urX32WTW+hRovIcMhrzg3HBatjQmQ/I3qpgEAAACA4uFPY5uGg6L5uh9rw5e0rZe1nYLkOeeeS9s6t6lhehzZKf6l9XsNk4YJlNw2oZL7TYg0/SZIIlACAAAAFAcHSNPmoMiB0YRK088NB8GsZyO1PMLkPJ0ldaDkRszA9E8UJg05nWhMcOS2vZHzBAAAAICiMUHR3piAqUJg9hBpmDDJiVGGRv4Xlo/pZYUKk4YJjHI+lobDJAAAAAAUnzU0WsOjmxBpBBYmreQ8bJzKAAAAAMA/p7CYT4C0ch8m20WYFBPIEMld3LbcO9nuI0wCAAAAQGXiMNmp75lMBkfZodqmLL+vOAcAAAAAsECYBAAAAADPECYBAAAAwLOw+jiMvGtSdqXjeyh1JwAAAADUmPSMqLp0mS7GmUkAAAAA8AxhEgAAAAA8U2EydfZSdVr6AQAAAKAGmTzIbdGkxUPdzw3OTAIAAACAZwiTAAAAAOBZaG77PPlTN+pXb0j+8k2qP0Htc9tp7Vr/P6do7QYAAACA4rH+hKLnn1M851zq3NaZ9Zdvkv3JMCkDpAp9Mvjpdnt7fmHSTO/UmOEAAAAAUHgmOKrQ59y4JcNkpwiTPE3aPIoQJk1AHB8flw33x+NxisVishkR3dxvHQ4AAAAAhRUOhykSiVA0GqV60TQ0NMiG+zn48XBumAyJObgNk77vmeRgyAFxdHRUBsa+vj46ePAg7d23j/YfOEDdPT00ODgoh42NjSFIAgAAABQJZzLOXJy9OINxFuNMxtmMMxoP48xWyJN7MkymZsVdqm+i2dtDZH9/v1zRg4cOUa9eWQAAAAAIFmcyzmac0TircWbLJ1SmDxV96i/J05lJXiifZeQVGRkZoSNHjsgV7B8YkCsFAAAAAOWFMxpnNc5snN04w3GW83vlOO8waYIkp9mhoSE63NUlT6NyGQAAAACUN85snN04w3GW40znJ1Amw6ScPDkP55nZg2R3dzcNiIQLAAAAAJWFMxxnueyB0t4tmoyImHB/ZtIeJHtEoh0aHtZDAQAAAKDScJaTmc7HGUrXYZKvs/MC+Np6T28vgiQAAABAFZCBUmQ7c/9kvp9/cRUmzVlJGSR1egUAAACA6mCuOnv5QI6LMKmCJDfDIrkODA7qcgAAAACoFpzxOOuZ3JeSHizT+kSPqzOTfLqTr6Pz9xLhq38AAAAAqo/86iCR9Tjz5ZP3XIVJTqf8TeqxkRFdAgAAAADVhrMeZ770M5O5iTDJJyvVCUv5mOzVv9UtGp4hX0vHWUkAAACA6sVZjzMfZz+VA2UoVERnqk8NZa7OTPLNmCOiAQAAAIDqxpmPs59brsKkSagAAAAAUN3MFWm3wtazlyy9V/Xlk04BAEqnn3a9to5efvllWrduHW3a3En7B8r0P76j3bRt3X/SI6tX06+fe4sO4RZ0AChjadlPX9G2RcZkmbvL3KOjugsAoJwM0purb6cf/sv9dN+9d9PyW79JV372Kvrphh49fCIJGtj5Ij265jURSw2nMp9ib9HK666i7/zbBtrbtY82rr6JvvL1u+i1gi0AAKCw8sl+rj/NDQBQjhJUR8dfsJR+9vP7aOXDq+jWT47T2tXP0nsZ/4V2Mka7n1tFa/40JP93rTiV+ZQI0az//UO6b/l36OtXf4Nu/fFNdN7w7+hX6w7rEQAAyks+2c9VmMSnuAGgrIVC+mDWRNNntlAkoT9/eHgj/fLuX9ALe1IHxSObHqW7H3ie9owdpg0P30tPbR2m8f0v0eq77qaHN2x1KDukJkwM0971j9GKZUvphhtuoTseeol2m1+VHX6XfnffPfSrP3TSq48up+/duJRuu3ct7TS3HDWeSGd/7Hiq17006Wg6ti1MsRj+ow4A5cnXL+CEdFsdiZN9AABlKzHUS11d+2n7hkfonjW9dPolZ9Nx8vDVRW88tYH2JiyHup7N9MzLuygeClP9pCZqrI9QONJIjU2TqD4ScSjjGQ3QG/dcR1/90YtEi86jT52/mGjdT+jrf7+S3uZAGY7Rtt8/Q8+uupMeH+igc89bRPHf/zMtXbGO+uRC0yUOvkGb9rTRgvZWXQIAUF7SwmSOOMiDXJ2ZBAAoV+HQCL2z+lt0+aVX0NdueoT2zT6dTp45SQ/NpY1OvuBzdOasKNH0U+iiSy+li06Z61B2FI3vepLu+22EPrPsH+nqC8+hvzz3M3TtrdfTGV1P0EMvdun59dH4B75GN17+CTrz3M/TtV/+CMVee4XeNWcvtUTfZlr1gwfo0Mf+li7pSJ6rBACoWAiTAFDRxhP11HHZnfT4f6yhNY/fRdcu2kE///YyeupAwe54pP7tb9Petg/SabMs4W/KAjp1YZT27jhA6jOPk2n2gmOTl7Kbjj6aJscHadhyD/tQ5+N0yzW30etL/i/94GunUosuBwCoZCpMymOuOvCmH34LdzAGACiaughFQhGqazyKFn36Yjq97h3auMXyUek87v1xkkiMU2IsTqNpt4+HxF+IQsn/kocoHE5dCwqJAam+BPX+4Wf0zaXP0XHXLKcfXPFBasV/5QGgCvDR1dXhLBzGUQ8AKsPIvk7aNdhMra1Rovomag530XsHk5+UoT2de2hYhMAkETTHx2wfMrSVTZ41n47peY1e2Wa5Zt23hTa9M04nzHsfiSXl1reB7rljEy351vfpyx86iiK6GACgXOWT/dyFSeuBFwCgrCSo79VHaPkdP6bbb/4GfeX6VdT90S/RJYsaiaacSGcsGaW1K5bTL597nn638ke0ekuUGpNnKuuo7ZhpNPTGf9FvnnmSntzEn9zOLIvM/jRdft4o/frmG2jFr9bSC88+Rsu/u5xen/MFuuyMqWpWOYzsepU2j06j+PpVdPddd6Wa+9fSTnygGwDKUD7ZL9LWNu1m3e1o2rRpdNGFF+K7JgGgDA1TT1eMIg1RitbVU9OMhXTW56+hqy9eTC3yv8pNNPu0U2hGz2Zav3Er9R/3V3ThR9oo2nwcdZw0S47TPHsJnRD/E63b+B7VLzyNTj52kkNZKx374Y/TGcd00x/Xr6fXtw3QjLOupOuvPJNm1onFjPZRd3+Yps5aRAuPbuAFU7znMPVGWmnO4g6a3LWbesLRzDOS4WnU/oG5uOQNAGUnGo3Sr594go4cOUIhvqXH3NqTbPjmHl02d257gj/+LRsxsfwoeLI/Qe3t7fTAypXUPzAgJwYAAACA6sUZcHJzM112+eXU+W5nMkDK4Cgb7uQoqcpc/X+4vr4el7oBAAAAagBnPs5+brkKk5FIhOrq6tRZSwAAAACoSpz1OPNx9nNLhslURFRdyX7dwdfNGxoaeAmqAAAAAACqj8h6nPk4+1llJEBLgeszkzxTTqr4IA4AAABA9eGMx1mPM1/eZyYnwjO1np3E5W4AAACA6iGzneWsJDduhTkWpn+0JjMo8hdX8o2YvIDGxkYaHbX8PhgAAAAAVDTOdpzxOOvJD147fmk5Z0QOnelpMa/L3DxzXlC0ro5GYjE9FAAAAAAqFWc6znac8TjrceYr+GVuTqc8U3Nmsrm5WfYjUAIAAABULs5ynOk425kzk9xf8J9T5C+m5JnyTZm8EG4mT54sy4aGhmh83Pa7tgAAAABQtji7cYbjLMeZzuQ7znpcJr+k3KUwj5p5l2QmEybNpe5JkybRlClTqD4apdjwMMXjcT0mAAAAAJQrzmyc3TjDcZbjTGcucZsw6YbJj67PYdrPTvJCm5qaqKWlRa7E2OgoDQ0O4sM5AAAAAGWIMxpnNc5snN04w3GWM5e3vZyVZO4viAsmUJqvCeIVMYGSGy6Pj4zQ4MAAxXA/JQAAAEDgOJNxNuOMxlnN5DbOcJzlONNxuZcgyeRXA+XDHih5RfimTb7e3traKk+XcnlifJz6+/pooL+fBkUKHhFPgE+r4v5KAAAAgMLj74rks4+cuTh7cQbjLMaZjLMZZzTOapzZOLtxhpswSKYV6R7R4i4zKDRnbrtYNn9hUILkP25zwpTtBLXPa6fn1q5VY1uo8RIyHPKKc8Nh0dqYAMnfqG4aAAAAACge/jS2aTgomq/7sTZ8Sdt6WdspSJ59zjnU2dkpQiOnRzUOjybb/E/1eA+ThgmU3DahkvtNiDT9JkgiUAIAAAAUBwdI0+agyIHRhErTzw0HwaxnIzWfYZL7VVCcKEwaZjoTHLltb+R8AQAAAKBoTFC0NyZgqlCYPUQaMky+K8KkCY2yEZ1p4VI0hQqThpxWt60Nh0kAAAAAKD5raDQNM203AguTVnI+Nk5lAAAAAOCfU1h0KnOjLMIkAAAAAFQmt2Eyy/dMipEsLQAAAACodc5Xl/P60nIAAAAAACuESQAAAADwDGESAAAAAJy5uOURYRIAAAAAPEOYBAAAAADPECYBAAAAwDOESQAAAADISd066XwDJcIkAAAAAHiGMAkAAAAAnskwKU9aph4AAAAAABxkZkWcmQQAAAAAzxAmAQAAAMAzGSbTf7Y7hCveAAAAAJAmGQ1FhzUm4swkAAAAAHiW+gCO46lIfZYSAAAAAGoTh0F7IBT9pigsO+SDutid6gcAAACAWsVx0Pm0YnqZ5TK3ZYC+iZJLRsfG6ODBg6oAAAAAAKoeZ7/R0THdl5sOk5YgyZ2yV5XFhmO0ZetW2Q0AAAAA1Y+z33BsWPfpnChaukvRPWkfwLGOYLpjIzHaumWL7gMAAACAasfZbyQ2IrtVJtTJMBkWU6kxbOnOHEG0+vv66cEH/412796tygAAAACganHm4+zX399vzYyC6kkVqTsqw8kBssUPehTdisfjtG/fPrpzxQpVAAAAAABVizMfZz/OgJLIhDoWCqon2S86Im3Tpt2cGkFJBUuFr5kfPnSYOjs7qaOjg1paWvQQAAAAAKgGfEZy2bLb6Nm1z9Lhw4dlWYhDoWhkS6ZIe7do5rbPS1BC/PE//hR3tm5h6tQWmjlzJn3xC1+g+fPn04IFC2jGjBlqIAAAAABUFP7U9pYtW2jr1q206sEH5RnJ3p5eNdAeGkWnLJFF3KPL20WYdAqPCVWQUR6N1tGUyVOovqGeGhsaKRIJiyFy1BxyDszJ85TeF+lD6RdaWU8zkLUtuRqpekJt7M9gyCN29QvgadbIlhU8PtOa2SelX6oKYqWWY6FiEA/lr/+JxYYpNjIi75GMx0dVWJQj6OCY7Fb9soS7Zadot88TYVK8JziHRx6ghvE/9WcpVw/JdjZyuFceJw1imX54Xl/P6+r9SQaweSprn1SaGnmaMAH5rgDZ6LfN0vKxSO+TVs7zDGKfqLNxJeZjkTm3kRgkh+uAqLpVWz7PZJl1uL1btHlW7fPmi2wo3k2SAVKUWrtlm4fLrrTujHYWcppS87HIXM8lp0CeZg2sqx8BLNKPQLYRQEDkG1It8Pg0/W2dQBbqSSD1wPPm8bGuZbZMOV/5Z22LR2sZ95tynkYOVN2ybcqTYZLfxmSL385EB/9ldNuG8z9VKP+y0VN643HSWlmmV77W1asAFulnoRW2ulAkQbxW9KEasglg8/hbpMepK6gaBFJnfSzS8/pW0zLlIDGGaMvxkm1rmeqWfdwtO23DuYjDpDxc8vFSB8Vs3eov1ZYh1FKWjRxeaj4W6Xl9A3maNbCufgSwSD8LDWR1a0UlbVx5xK5+wTzNAJYayCJLvFAfiyv5ujKPi/S1rkEsMxcTBFUyVMvRZaY/Y5itW/Zx7zw+MymOsqnQyC35qMpkW3TIP93W46nxzbAc1Iw80UsqLY+L9LWuJX6albSufgRSf/yosNX1rmaeaInJo3v1q7CnKd98S63Ei6y05+h5fStsmbkmlkPEg1yvtKCYXib7uFt2ZilTYVIc2tWjzn26LR4yhuky1RZd8k+1s9FTeONxUl/L9MrX0yzx+gayeSprn3gVyPOE4glid8ojNGSj38IqRwCrW/JtVGnP0eOkgdQ9ld48yTmlGCifD//JZehnx+FQdchya5nss5aZ9rz5fM8k94m3QG7rsKgLdds6THTIP4d2NjkGTSTnfHPxsUyvPK+rD2Y/lVQAi/QqiH1SSdsnKIHslxqgD+2QSwCbKJD9UkFVQQWZ0vK8T3ytqreJi7VIuQ3kn7Wttwy3LWWqKH2YHKrLZJjk4zof2vMJkGpU3a+ny0ZO55XHSYNYph++1tcLX5sngA3kVS3sS78qbHWhSNT7RUXQb2mVI4DVLfk2qoXnyHSw8sLzlD6eZs5tJAbJ4XIU0WXpV209NbdVh2jLDtm2DhNhcoF479Nvf7a2CZXqT46WHJZsW8qLwSwlbz5Wx/My/SjxIivtOQayvl5V0KrWkkqqQ/owDcVQQZvWVz0o8fMMpM4GssjS75OibVsxWxUK9fztAVGOYNrpw3Sp7hfNfBEm5SFWh8O0s5L2th4nazur3ENz8jjpRGuUk49JvfK8vpW0rkHA9gG/gtid8igNxaDfAkurgvZnJW2fStuXntfX19PMPrEcYg2J9rbqkG1ZqgpEy4yTKg/NX7BQ5EdxtEwGQtHmjmz9OdrZZB/iQo75Fot+RqXlcZHe19THcwxg83gVyL4MQs08zRp5ogHQbw+lFcAig1Ab29b7Aj1P6eM5VtI+Kdq6JkNhHm3R6E5+1O0Q/X/Z+An8jexUtgAAAABJRU5ErkJggg==;" vertex="1" parent="1">
          <mxGeometry x="1293.5" y="220" width="659" height="185" as="geometry" />
        </mxCell>
      </root>
    </mxGraphModel>
  </diagram>
</mxfile>
